<svg xmlns="http://www.w3.org/2000/svg" width="666" height="514" viewBox="0 0 666 514" fill="none">
  <path d="M 394.0 36.0 L 347.0 24.0 L 310.0 20.0 L 261.0 21.0 L 210.0 30.0 L 172.0 43.0 L 144.0 57.0 L 125.0 69.0 L 101.0 88.0 L 85.0 104.0 L 68.0 125.0 L 44.0 166.0 L 30.0 205.0 L 23.0 238.0 L 20.0 267.0 L 21.0 309.0 L 30.0 354.0 L 46.0 391.0 L 66.0 419.0 L 97.0 447.0 L 134.0 468.0 L 157.0 477.0 L 182.0 484.0 L 241.0 493.0 L 299.0 493.0 L 358.0 484.0 L 383.0 477.0 L 409.0 467.0 L 434.0 454.0 L 464.0 432.0 L 488.0 406.0 L 499.0 390.0 L 509.0 370.0 L 518.0 345.0 L 520.0 333.0 L 370.0 333.0 L 364.0 347.0 L 353.0 362.0 L 333.0 377.0 L 322.0 382.0 L 303.0 387.0 L 263.0 388.0 L 238.0 382.0 L 217.0 371.0 L 199.0 352.0 L 188.0 326.0 L 185.0 309.0 L 186.0 293.0 L 523.0 292.0 L 529.0 248.0 L 529.0 202.0 L 526.0 181.0 L 520.0 158.0 L 505.0 124.0 L 488.0 99.0 L 470.0 80.0 L 454.0 67.0 L 430.0 52.0 Z M 376.0 172.0 L 376.0 209.0 L 193.0 208.0 L 198.0 191.0 L 206.0 173.0 L 224.0 148.0 L 237.0 136.0 L 258.0 124.0 L 278.0 118.0 L 298.0 116.0 L 316.0 117.0 L 327.0 119.0 L 347.0 127.0 L 353.0 131.0 L 367.0 147.0 Z" fill="#000000" fill-rule="evenodd"/>
  <path d="M 582.0 342.0 L 562.0 348.0 L 554.0 353.0 L 544.0 363.0 L 534.0 383.0 L 533.0 408.0 L 541.0 428.0 L 553.0 441.0 L 569.0 450.0 L 583.0 453.0 L 594.0 453.0 L 613.0 448.0 L 632.0 433.0 L 640.0 420.0 L 645.0 397.0 L 641.0 377.0 L 636.0 367.0 L 628.0 357.0 L 617.0 349.0 L 605.0 344.0 L 596.0 342.0 Z" fill="#000000"/>
</svg>
