<svg width="612" height="146" viewBox="0 0 612 146" fill="none" xmlns="http://www.w3.org/2000/svg">
<path d="M79.4582 107.613H79.4509L78.9802 107.718C78.9666 107.718 78.9519 107.726 78.9352 107.729L45.8046 115.216L45.2962 115.332C45.2894 115.329 45.282 115.329 45.2752 115.332C45.1956 115.36 45.117 115.391 45.0362 115.429C44.4284 115.711 43.958 116.222 43.7285 116.85C43.499 117.477 43.529 118.169 43.812 118.774C43.8619 118.884 43.9215 118.988 43.9902 119.087L44.6704 119.785C44.9854 120.001 45.3455 120.143 45.7237 120.2C46.1019 120.258 46.4883 120.229 46.8538 120.116C46.4883 120.229 46.1019 120.258 45.7237 120.2C45.3455 120.143 44.9854 120.001 44.6704 119.785L55.0673 130.403L69.3549 144.993C69.3549 145 69.3601 145.004 69.3654 145.006L69.6588 145.306C69.6588 145.311 69.6641 145.317 69.6693 145.319C69.9676 145.575 70.3209 145.759 70.7018 145.857C71.0828 145.955 71.4814 145.965 71.8668 145.886C72.2523 145.807 72.6144 145.641 72.9252 145.401C73.236 145.161 73.4873 144.853 73.6597 144.501L73.9176 143.502L79.563 121.359L82.2222 110.931C82.196 111.013 82.1656 111.094 82.131 111.172C82.1656 111.094 82.196 111.013 82.2222 110.931C82.2222 110.931 82.2285 110.924 82.2222 110.917L82.3103 110.571C82.3103 110.561 82.3166 110.554 82.3166 110.545C82.3788 110.153 82.3485 109.751 82.2282 109.373C82.1079 108.995 81.9008 108.649 81.6233 108.364C81.3458 108.079 81.0055 107.862 80.6292 107.73C80.2529 107.598 79.851 107.555 79.4551 107.604L79.4582 107.613ZM48.4816 118.582C48.5372 118.431 48.5779 118.274 48.6032 118.114C48.5779 118.274 48.5372 118.431 48.4816 118.582ZM48.6126 117.383C48.5898 117.217 48.5505 117.054 48.4952 116.896C48.5502 117.054 48.5891 117.217 48.6115 117.383H48.6126ZM77.2759 110.746C77.3164 110.914 77.374 111.078 77.4478 111.235C77.3737 111.078 77.3157 110.914 77.2749 110.746H77.2759ZM78.8995 112.558C79.0545 112.614 79.2146 112.656 79.3775 112.681C79.2142 112.656 79.0538 112.614 78.8985 112.558H78.8995Z" fill="#1E8BE8"/>
<path d="M144.82 36.2758C139.121 24.0224 131.305 12.8596 121.726 3.29576L121.367 2.9381C121.338 2.90359 121.306 2.87182 121.272 2.8432L121.08 2.65236C121.072 2.64506 121.065 2.6388 121.052 2.62524C119.654 1.35669 117.927 0.504158 116.066 0.164744C114.205 -0.17467 112.286 0.0126747 110.527 0.705482L110.439 0.739915L110.334 0.785804L110.247 0.822273C110.004 0.926551 109.786 1.03085 109.585 1.13513L106.878 3.17585C106.761 3.29994 106.651 3.43132 106.54 3.56167L104.106 5.40114L104.101 5.27391L68.3024 32.3236L68.2196 32.3862L68.1043 32.4738L5.67628 79.6564L5.65321 79.6741L4.37969 80.6335L4.36712 80.6429C4.12419 80.8079 3.88978 80.9851 3.66483 81.1737L3.59145 81.2321C2.5597 82.0851 1.7121 83.137 1.09964 84.3244C0.487188 85.5118 0.122554 86.8102 0.0276712 88.1415C-0.0226015 88.8159 -0.00433863 89.4937 0.0821781 90.1645C0.0821781 90.177 0.0821884 90.1874 0.0926701 90.2104C0.170523 90.8128 0.305988 91.4064 0.49725 91.9831V91.9925V91.9998L0.505631 92.0196V92.0342V92.0551C1.30212 95.2604 2.40894 98.3814 3.81053 101.374C3.8577 101.479 3.90487 101.575 3.95518 101.673C5.36024 104.628 7.04825 107.441 8.99583 110.074V110.082L9.02414 110.133H9.03146C9.53919 111.028 10.1834 111.84 10.9412 112.538L10.9465 112.546C12.608 114.084 14.7492 115.009 17.0133 115.167C17.576 115.208 18.1412 115.202 18.7029 115.148C19.5551 115.069 20.3936 114.882 21.1976 114.59L21.8705 114.437L36.1141 111.214L36.2598 111.181L36.3552 111.16L84.8394 100.202L98.1659 97.1887L98.2225 97.1761L142.246 87.226L142.445 87.1811L146.617 86.2364L146.641 86.2311C147.135 86.1579 147.622 86.0478 148.1 85.9016H148.113C148.354 85.8297 148.608 85.7379 148.868 85.6336L148.962 85.595L149.067 85.5533C149.184 85.5043 149.3 85.4553 149.415 85.4021C151.041 84.6531 152.434 83.484 153.451 82.0167C154.468 80.5494 155.07 78.8377 155.196 77.0599C155.212 76.843 155.223 76.6271 155.226 76.4155V76.3925C155.23 75.8154 155.183 75.239 155.087 74.6699L155.095 74.6459L155.083 74.6104C153.939 61.4054 150.495 48.499 144.904 36.4687L144.86 36.3738L144.816 36.2778L144.82 36.2758ZM133.264 43.0538C133.73 44.1758 134.127 45.325 134.453 46.495C135.855 51.5416 135.866 56.8711 134.482 61.9229L134.472 61.95C134.456 62.0084 134.441 62.0689 134.426 62.1283C134.412 62.1878 134.399 62.2399 134.384 62.29L134.329 62.3181L134.353 62.3692C134.331 62.4234 134.304 62.4735 134.277 62.5267C134.251 62.5799 134.232 62.6247 134.205 62.6706C134.178 62.7165 134.135 62.7749 134.1 62.8218C134.066 62.8687 134.038 62.9136 134.003 62.9563C133.967 62.9991 133.92 63.0418 133.878 63.0846C133.836 63.1273 133.802 63.1669 133.759 63.2045C133.716 63.242 133.663 63.2764 133.616 63.3088C133.569 63.3411 133.528 63.3786 133.481 63.413C133.434 63.4475 133.371 63.4725 133.314 63.5007C133.258 63.5288 133.222 63.5528 133.174 63.5736C133.126 63.5945 133.041 63.6206 132.974 63.6425C132.931 63.656 132.889 63.6748 132.844 63.6862C132.76 63.7055 132.676 63.7202 132.591 63.7301C132.56 63.7301 132.528 63.7436 132.497 63.7467C132.145 63.7792 131.791 63.7272 131.464 63.5951C131.138 63.463 130.847 63.2546 130.618 62.9876C130.514 62.8291 130.409 62.6696 130.304 62.5069C123.704 52.5059 118.718 41.5396 115.525 30.0055L115.513 29.9763C115.513 29.968 115.513 29.9555 115.505 29.9555C115.503 29.939 115.499 29.9228 115.492 29.9075C115.464 29.8105 115.435 29.7114 115.415 29.6155L115.409 29.5988V29.5863C115.386 29.4335 115.379 29.2786 115.389 29.1244C115.408 28.8645 115.477 28.6107 115.594 28.3777C115.712 28.1448 115.874 27.9372 116.072 27.7669C116.27 27.5966 116.5 27.4669 116.749 27.3855C116.998 27.304 117.26 27.2723 117.521 27.2922C117.598 27.2978 117.675 27.3082 117.75 27.3235C117.773 27.3235 117.797 27.3349 117.82 27.3412C117.867 27.3516 117.916 27.3642 117.963 27.3788L117.993 27.4319L118.042 27.409C118.159 27.4601 118.276 27.5133 118.386 27.5675L118.422 27.5852C124.724 30.5136 129.789 35.5557 132.729 41.8275C132.931 42.2717 133.107 42.6763 133.264 43.0559V43.0538Z" fill="#1E8BE8"/>
<path d="M215.642 47.3805V84.1862C215.642 86.7498 216.237 88.6267 217.428 89.8169C218.71 90.9156 220.816 91.465 223.747 91.465H232.675V107.67H220.587C204.378 107.67 196.274 99.7966 196.274 84.0489V47.3805H187.208V31.587H196.274V12.7721H215.642V31.587H232.675V47.3805H215.642Z" fill="white"/>
<path d="M317.25 67.9807C317.25 70.7274 317.066 73.1994 316.7 75.3968H261.068C261.526 80.8902 263.449 85.1934 266.837 88.3063C270.225 91.4192 274.392 92.9757 279.337 92.9757C286.48 92.9757 291.562 89.9085 294.584 83.7742H315.326C313.129 91.0987 308.916 97.1415 302.689 101.902C296.462 106.572 288.815 108.906 279.749 108.906C272.423 108.906 265.83 107.304 259.969 104.1C254.199 100.804 249.666 96.1801 246.37 90.229C243.165 84.2778 241.562 77.411 241.562 69.6287C241.562 61.7549 243.165 54.8424 246.37 48.8912C249.575 42.94 254.062 38.3622 259.831 35.1577C265.601 31.9532 272.24 30.351 279.749 30.351C286.984 30.351 293.44 31.9075 299.117 35.0204C304.887 38.1333 309.328 42.5738 312.442 48.3418C315.647 54.0184 317.25 60.5646 317.25 67.9807ZM297.332 62.4873C297.24 57.5433 295.454 53.6063 291.975 50.6765C288.495 47.6552 284.236 46.1445 279.2 46.1445C274.438 46.1445 270.408 47.6094 267.112 50.5392C263.907 53.3775 261.938 57.3602 261.205 62.4873H297.332Z" fill="white"/>
<path d="M350.517 6.04273V107.67H331.286V6.04273H350.517Z" fill="white"/>
<path d="M388.749 6.04273V107.67H369.518V6.04273H388.749Z" fill="white"/>
<path d="M417.502 22.5229C414.113 22.5229 411.274 21.47 408.985 19.3642C406.787 17.1668 405.688 14.4659 405.688 11.2615C405.688 8.05697 406.787 5.40183 408.985 3.29603C411.274 1.09868 414.113 0 417.502 0C420.89 0 423.683 1.09868 425.881 3.29603C428.17 5.40183 429.315 8.05697 429.315 11.2615C429.315 14.4659 428.17 17.1668 425.881 19.3642C423.683 21.47 420.89 22.5229 417.502 22.5229ZM426.98 31.587V107.67H407.749V31.587H426.98Z" fill="white"/>
<path d="M488.151 30.4883C497.217 30.4883 504.543 33.3724 510.129 39.1404C515.715 44.8169 518.508 52.7823 518.508 63.0367V107.67H499.277V65.646C499.277 59.6033 497.766 54.9797 494.744 51.7752C491.722 48.4792 487.601 46.8312 482.381 46.8312C477.07 46.8312 472.857 48.4792 469.744 51.7752C466.722 54.9797 465.211 59.6033 465.211 65.646V107.67H445.98V31.587H465.211V41.0631C467.775 37.7671 471.026 35.2035 474.964 33.3724C478.993 31.4497 483.389 30.4883 488.151 30.4883Z" fill="white"/>
<path d="M566.604 30.351C572.281 30.351 577.272 31.4954 581.576 33.7844C585.88 35.9817 589.269 38.8657 591.741 42.4365V31.587H611.109V108.22C611.109 115.27 609.69 121.541 606.851 127.035C604.012 132.62 599.754 137.014 594.076 140.219C588.399 143.515 581.531 145.163 573.472 145.163C562.666 145.163 553.783 142.645 546.823 137.609C539.955 132.574 536.063 125.707 535.147 117.009H554.241C555.248 120.488 557.4 123.235 560.697 125.249C564.085 127.355 568.16 128.408 572.922 128.408C578.509 128.408 583.042 126.714 586.521 123.327C590.001 120.031 591.741 114.995 591.741 108.22V96.409C589.269 99.9797 585.835 102.955 581.439 105.336C577.135 107.716 572.19 108.906 566.604 108.906C560.193 108.906 554.332 107.258 549.021 103.962C543.71 100.666 539.497 96.0428 536.384 90.0916C533.362 84.0489 531.851 77.1364 531.851 69.3541C531.851 61.6633 533.362 54.8424 536.384 48.8912C539.497 42.94 543.664 38.3622 548.884 35.1577C554.195 31.9532 560.102 30.351 566.604 30.351ZM591.741 69.6287C591.741 64.9594 590.825 60.9766 588.994 57.6806C587.162 54.293 584.69 51.7294 581.576 49.9899C578.463 48.1587 575.12 47.2432 571.549 47.2432C567.977 47.2432 564.681 48.1129 561.659 49.8525C558.637 51.5921 556.164 54.1557 554.241 57.5433C552.409 60.8393 551.494 64.7762 551.494 69.3541C551.494 73.9319 552.409 77.9604 554.241 81.4395C556.164 84.8271 558.637 87.4365 561.659 89.2676C564.772 91.0987 568.069 92.0143 571.549 92.0143C575.12 92.0143 578.463 91.1445 581.576 89.4049C584.69 87.5738 587.162 85.0102 588.994 81.7142C590.825 78.3266 591.741 74.2981 591.741 69.6287Z" fill="white"/>
</svg>
